<?xml version="1.0" encoding="UTF-8"?>
<!-- Created with Inkscape (http://www.inkscape.org/) -->
<svg width="192" height="100.24" version="1.1" viewBox="0 0 50.799 26.523" xmlns="http://www.w3.org/2000/svg">
 <defs>
  <style>.\35 725c6e8-11c4-4fa3-8d5d-d4dc0d42f1a5{fill:#4d4d4d}</style>
 </defs>
 <g transform="matrix(1.0105 0 0 1.0105 1.8777e-5 0)">
  <path d="m21.825 0.022135-0.05426 5.1559c1.8442 0.41786 2.9511 1.4337 2.9325 3.2079-0.03383 3.2156-3.1048 4.996-3.1573 9.9857-0.05076 4.8236 2.3295 7.4126 6.9243 7.8742l0.05426-5.1559c-1.8872-0.41856-2.9942-1.4344-2.9749-3.2639 0.03384-3.2156 3.1037-4.8854 3.1573-9.9861 0.04959-4.7126-2.3301-7.3571-6.882-7.818z" fill="#4d4d4d" stroke-width="1.9584"/>
  <g stroke-width=".76186">
   <circle class="5725c6e8-11c4-4fa3-8d5d-d4dc0d42f1a5" cx="16.835" cy="2.2095" r="2.2094"/>
   <rect class="5725c6e8-11c4-4fa3-8d5d-d4dc0d42f1a5" x="14.854" y="6.0188" width="3.8855" height="20.227" rx=".30474" ry=".30474"/>
   <path d="m45.472 13.561h-10.666a0.22856 0.22856 0 0 1-0.22856-0.22856 6.2472 6.2472 0 0 1 5.4855-3.3522 6.1712 6.1712 0 0 1 5.4855 3.3522 0.22856 0.22856 0 0 1-0.07619 0.22856zm1.8285-4.5712a10.057 10.057 0 1 0 1.7523 11.885c0-0.07619-0.07619-0.15237-0.15237-0.15237h-4.1902l-0.45712 0.15237a6.2472 6.2472 0 0 1-10.209-3.5807 0.22856 0.22856 0 0 1 0.22856-0.22856h15.694a0.30474 0.30474 0 0 0 0.30474-0.30474v-0.60947a10.057 10.057 0 0 0-2.9713-7.1615z" fill="#4d4d4d"/>
   <path d="m11.502 6.0188h-7.6186v-5.714a0.30474 0.30474 0 0 0-0.30474-0.30474h-3.276a0.30474 0.30474 0 0 0-0.30474 0.30474v15.77a10.133 10.133 0 0 0 10.133 10.133h1.3713a0.30474 0.30474 0 0 0 0.30474-0.30474v-3.276a0.30474 0.30474 0 0 0-0.30474-0.30474h-1.3713a6.2472 6.2472 0 0 1-6.2472-6.2472v-6.2472h7.6186a0.30474 0.30474 0 0 0 0.30474-0.30474v-3.276a0.30474 0.30474 0 0 0-0.30474-0.22856z" fill="#4d4d4d"/>
  </g>
 </g>
</svg>
